# xmcd
#
# Track frame offsets:
#	150
#	23070
#	51052
#	85458
#	99136
#	112834
#	124354
#	147628
#	163710
#	182986
#	198686
#	230213
#	247320
#	262309
#	274532
#
# Disc length: 3819 seconds
#
# Revision: 5
# Processed by: cddbd v1.5.2PL0 Copyright (c) Steve Scherf et al.
# Submitted via: EZCDAudioConverter 2.1.7.1
#
DISCID=e60ee90f
DTITLE=V/A - Highway To Hell
DYEAR=2010
DGENRE=MOJO
TTITLE0=James Brown - Hell
TTITLE1=John Martyn - I'd Rather Be The Devil
TTITLE2=Curtis Mayfield - (Don't Worry) If There's A Hell Below We're All Goin
TTITLE2=g To Go
TTITLE3=Lavice and Company - Thoughs Were The Days
TTITLE4=The Gun Club - A Devil In The Woods
TTITLE5=Dawn Kinnard - Devil's Flame
TTITLE6=Nick Cave and The Bad Seeds - Up Jumped The Devil
TTITLE7=Soulsavers featuring Mark Lanegan - You Will Miss Me When I Burn
TTITLE8=Hellsongs - Seasons In The Abyss
TTITLE9=Deerhoof - Satan
TTITLE10=Comets On Fire - Lucifer's Memory
TTITLE11=Soul Messengers and The Spirit Of Israel - Burn Devil Burn
TTITLE12=Black Mountain - Evil Ways
TTITLE13=Roky Erickson and The Explosives - Don't Shake Me Lucifer
TTITLE14=Otis Spann - I'd Rather Be The Devil
EXTD=
EXTT0=
EXTT1=
EXTT2=
EXTT3=
EXTT4=
EXTT5=
EXTT6=
EXTT7=
EXTT8=
EXTT9=
EXTT10=
EXTT11=
EXTT12=
EXTT13=
EXTT14=
PLAYORDER=
